<svg width="16" height="16" viewBox="0 0 16 16" fill="none" xmlns="http://www.w3.org/2000/svg">
<path fill-rule="evenodd" clip-rule="evenodd" d="M11.6464 4.97994C11.8417 4.78468 12.1583 4.78468 12.3535 4.97994L15.0202 7.64661C15.114 7.74038 15.1666 7.86755 15.1666 8.00016C15.1666 8.13277 15.114 8.25995 15.0202 8.35372L12.3535 11.0204C12.1583 11.2156 11.8417 11.2156 11.6464 11.0204C11.4512 10.8251 11.4512 10.5085 11.6464 10.3133L13.4595 8.50016L1.33331 8.50016C1.05717 8.50016 0.833313 8.27631 0.833313 8.00016C0.833313 7.72402 1.05717 7.50016 1.33331 7.50016L13.4595 7.50016L11.6464 5.68705C11.4512 5.49179 11.4512 5.1752 11.6464 4.97994Z" fill="#394353"/>
</svg>
