<svg width="20" height="20" viewBox="0 0 20 20" fill="none" xmlns="http://www.w3.org/2000/svg">
<path fill-rule="evenodd" clip-rule="evenodd" d="M10.0003 2.29199C5.74313 2.29199 2.29199 5.74313 2.29199 10.0003C2.29199 14.2575 5.74313 17.7087 10.0003 17.7087C14.2575 17.7087 17.7087 14.2575 17.7087 10.0003C17.7087 5.74313 14.2575 2.29199 10.0003 2.29199ZM1.04199 10.0003C1.04199 5.05277 5.05277 1.04199 10.0003 1.04199C14.9479 1.04199 18.9587 5.05277 18.9587 10.0003C18.9587 14.9479 14.9479 18.9587 10.0003 18.9587C5.05277 18.9587 1.04199 14.9479 1.04199 10.0003Z" fill="#424E62"/>
<path fill-rule="evenodd" clip-rule="evenodd" d="M10.0003 1.04199C10.1714 1.04199 10.3349 1.1121 10.4529 1.23596C12.7034 3.59897 13.9587 6.73712 13.9587 10.0003C13.9587 13.2635 12.7034 16.4017 10.4529 18.7647C10.3349 18.8886 10.1714 18.9587 10.0003 18.9587C9.82928 18.9587 9.6657 18.8886 9.54774 18.7647C7.29726 16.4017 6.04199 13.2635 6.04199 10.0003C6.04199 6.73712 7.29726 3.59897 9.54774 1.23596C9.6657 1.1121 9.82928 1.04199 10.0003 1.04199ZM10.0003 2.60227C8.25623 4.66494 7.29199 7.28461 7.29199 10.0003C7.29199 12.716 8.25623 15.3357 10.0003 17.3984C11.7444 15.3357 12.7087 12.716 12.7087 10.0003C12.7087 7.28461 11.7444 4.66494 10.0003 2.60227Z" fill="#424E62"/>
<path fill-rule="evenodd" clip-rule="evenodd" d="M1.04199 10.0003C1.04199 9.65515 1.32181 9.37533 1.66699 9.37533H18.3337C18.6788 9.37533 18.9587 9.65515 18.9587 10.0003C18.9587 10.3455 18.6788 10.6253 18.3337 10.6253H1.66699C1.32181 10.6253 1.04199 10.3455 1.04199 10.0003Z" fill="#424E62"/>
</svg>
