<svg width="20" height="20" viewBox="0 0 20 20" fill="none" xmlns="http://www.w3.org/2000/svg">
<path fill-rule="evenodd" clip-rule="evenodd" d="M9.00008 1.2915C4.74289 1.2915 1.29175 4.74264 1.29175 8.99984C1.29175 13.257 4.74289 16.7082 9.00008 16.7082C13.2573 16.7082 16.7084 13.257 16.7084 8.99984C16.7084 4.74264 13.2573 1.2915 9.00008 1.2915ZM0.041748 8.99984C0.041748 4.05229 4.05253 0.0415039 9.00008 0.0415039C13.9476 0.0415039 17.9584 4.05229 17.9584 8.99984C17.9584 13.9474 13.9476 17.9582 9.00008 17.9582C4.05253 17.9582 0.041748 13.9474 0.041748 8.99984Z" fill="#6941C6"/>
<path fill-rule="evenodd" clip-rule="evenodd" d="M9.00008 0.0415039C9.17113 0.0415039 9.3347 0.111607 9.45267 0.235469C11.7032 2.59848 12.9584 5.73664 12.9584 8.99984C12.9584 12.263 11.7032 15.4012 9.45267 17.7642C9.3347 17.8881 9.17113 17.9582 9.00008 17.9582C8.82903 17.9582 8.66546 17.8881 8.5475 17.7642C6.29701 15.4012 5.04175 12.263 5.04175 8.99984C5.04175 5.73664 6.29701 2.59848 8.5475 0.235469C8.66546 0.111607 8.82903 0.0415039 9.00008 0.0415039ZM9.00008 1.60178C7.25598 3.66446 6.29175 6.28412 6.29175 8.99984C6.29175 11.7156 7.25598 14.3352 9.00008 16.3979C10.7442 14.3352 11.7084 11.7156 11.7084 8.99984C11.7084 6.28412 10.7442 3.66446 9.00008 1.60178Z" fill="#6941C6"/>
<path fill-rule="evenodd" clip-rule="evenodd" d="M0.041748 8.99984C0.041748 8.65466 0.32157 8.37484 0.666748 8.37484H17.3334C17.6786 8.37484 17.9584 8.65466 17.9584 8.99984C17.9584 9.34502 17.6786 9.62484 17.3334 9.62484H0.666748C0.32157 9.62484 0.041748 9.34502 0.041748 8.99984Z" fill="#6941C6"/>
</svg>
